# xmcd
#
# Track frame offsets: 
#        150
#        7860
#        18437
#        28207
#        32372
#        38100
#        49515
#        52577
#        59957
#        65647
#        71997
#        77817
#        86965
#        99275
#        104822
#        111807
#        116110
#        127615
#        130075
#        136470
#        140400
#        148357
#
# Disc length: 2095 seconds
#
# Revision: 6
# Processed by: cddbd v1.5.2PL0 Copyright (c) Steve Scherf et al.
# Submitted via: ExactAudioCopy v0.99pb3
#
DISCID=3e082d16
DTITLE=Merle Travis - Walkin' the Strings
DYEAR=1900
DGENRE=Country
TTITLE0=Walkin' The Strings
TTITLE1=Little David Play On Your Harp
TTITLE2=Saturday Night Shuffle
TTITLE3=Thumbing The Bass
TTITLE4=Cane Break Blues
TTITLE5=Darby's Ram
TTITLE6=Everly Rag
TTITLE7=Rose Time
TTITLE8=Old Aunt Dinah
TTITLE9=My Old Kentucky Home
TTITLE10=Pigmeat Stomp
TTITLE11=Blue Smoke
TTITLE12=Dry Bread
TTITLE13=Louisville Clog
TTITLE14=On A Bicycle Built For Two
TTITLE15=Green Bay Polka
TTITLE16=Jordan Am A Hard Road To Travel
TTITLE17=Travis Trot
TTITLE18=Cannon Ball Stomp
TTITLE19=Fuller Blues
TTITLE20=Blue Bell
TTITLE21=Take My Hand, Precious Lord
EXTD=
EXTT0=
EXTT1=
EXTT2=
EXTT3=
EXTT4=
EXTT5=
EXTT6=
EXTT7=
EXTT8=
EXTT9=
EXTT10=
EXTT11=
EXTT12=
EXTT13=
EXTT14=
EXTT15=
EXTT16=
EXTT17=
EXTT18=
EXTT19=
EXTT20=
EXTT21=
PLAYORDER=
